95a5e963bb6b654603089f3e17718b16 *tests/data/fate/pcm_dvd-24-1-48000.vob
106496 tests/data/fate/pcm_dvd-24-1-48000.vob
#tb 0: 1/48000
#media_type 0: audio
#codec_id 0: pcm_s24le
#sample_rate 0: 48000
#channel_layout_name 0: mono
0,          0,          0,      664,     1992, 0x722ccac0
0,        672,        672,      668,     2004, 0x7a82f0db
0,       1344,       1344,      672,     2016, 0xe91cd0d1
0,       2016,       2016,      668,     2004, 0x76fbb193
0,       2688,       2688,      672,     2016, 0xc85bd904
0,       3360,       3360,      668,     2004, 0x698219fa
0,       4032,       4032,      672,     2016, 0xe74cd175
0,       4704,       4704,      668,     2004, 0x684bd409
0,       5376,       5376,      672,     2016, 0xf497da15
0,       6048,       6048,      668,     2004, 0x6166e1ea
0,       6720,       6720,      672,     2016, 0x3836159e
0,       7392,       7392,      668,     2004, 0x0827cfe5
0,       8064,       8064,      672,     2016, 0x78150039
0,       8736,       8736,      668,     2004, 0x28bcc323
0,       9408,       9408,      672,     2016, 0x7123c17d
0,      10080,      10080,      668,     2004, 0xcbfeed6f
0,      10752,      10752,      672,     2016, 0x05d6128d
0,      11424,      11424,      668,     2004, 0xb4f1e9b9
0,      12096,      12096,      672,     2016, 0xf83b0966
0,      12768,      12768,      668,     2004, 0x71a9f220
0,      13440,      13440,      672,     2016, 0x97b5fc85
0,      14112,      14112,      668,     2004, 0xda97b165
0,      14784,      14784,      672,     2016, 0x43c9cfcf
0,      15456,      15456,      668,     2004, 0x5d83e552
0,      16128,      16128,      672,     2016, 0xe1bbc192
0,      16800,      16800,      668,     2004, 0xdec9a0ba
0,      17472,      17472,      672,     2016, 0xcc01cd21
0,      18144,      18144,      668,     2004, 0x73f99e51
0,      18816,      18816,      672,     2016, 0x023ec896
0,      19488,      19488,      668,     2004, 0x4d5cd720
0,      20160,      20160,      672,     2016, 0x9af2bb31
0,      20832,      20832,      668,     2004, 0xd2a3dac6
0,      21504,      21504,      672,     2016, 0x02dbce4f
0,      22176,      22176,      668,     2004, 0xbba5f7e6
0,      22848,      22848,      672,     2016, 0xfb5501c1
0,      23520,      23520,      668,     2004, 0xe953ed65
0,      24192,      24192,      672,     2016, 0x5c83d800
0,      24864,      24864,      668,     2004, 0xabc0e62c
0,      25536,      25536,      672,     2016, 0xda8be7e0
0,      26208,      26208,      668,     2004, 0x0acbc166
0,      26880,      26880,      664,     1992, 0x46dddfa4
0,      27552,      27552,      672,     2016, 0x9a33b4cc
0,      28224,      28224,      668,     2004, 0xda13d604
0,      28896,      28896,      672,     2016, 0xe92dd4fb
0,      29568,      29568,      668,     2004, 0xedd2bcec
0,      30240,      30240,      672,     2016, 0x73afe253
0,      30912,      30912,      668,     2004, 0x17eae64a
0,      31584,      31584,      672,     2016, 0x48b0f6c2
0,      32256,      32256,      668,     2004, 0x4f72fb8d
0,      32928,      32928,      672,     2016, 0x3ad7dfdd
0,      33600,      33600,      668,     2004, 0x3e72ee51
0,      34272,      34272,      404,     1212, 0x416c4aef
